<?xml version="1.0" encoding="UTF-8"?><svg id="Layer_1" xmlns="http://www.w3.org/2000/svg" width="9.95mm" height="12.8mm" viewBox="0 0 28.22 36.27"><path d="M26.31,8.52c-3.68-.6-6.13-1.43-8.78-3.19-.8-.53-1.61-1.14-2.48-1.86-.45-.37-1.1-.37-1.55,0-.76.63-1.49,1.17-2.19,1.65-2.77,1.89-5.29,2.78-9.06,3.39-.59.1-1.03.61-1.03,1.21,0,3.26-.03,9.17.35,11.69.58,3.36,2.28,6.39,4.97,8.6,1.48,1.23,3.14,2.45,4.78,3.54.8.53,1.59,1.02,2.35,1.48.38.23.86.23,1.24,0,.86-.51,1.74-1.07,2.63-1.67,1.55-1.04,3.1-2.18,4.49-3.35,2.69-2.21,4.38-5.24,4.97-8.6.37-2.52.34-8.43.35-11.69,0-.6-.43-1.11-1.03-1.21ZM24.45,20.98c-.47,2.69-1.82,5.11-3.97,6.88-.92.77-1.93,1.53-2.95,2.23-.93.65-1.86,1.25-2.76,1.78-.31.18-.69.18-.99,0-.8-.47-1.64-1.01-2.47-1.58-1.11-.76-2.22-1.59-3.23-2.43-2.15-1.77-3.51-4.19-3.97-6.88-.3-2.01-.27-6.74-.28-9.35,0-.48.35-.89.82-.97,2.75-.45,4.66-1.08,6.66-2.32.76-.47,1.52-1.04,2.35-1.71.36-.29.88-.29,1.24,0,.93.77,1.79,1.39,2.63,1.9,1.88,1.13,3.74,1.71,6.37,2.14.47.08.82.49.82.97,0,2.61.02,7.34-.28,9.35Z"/><path d="M14.28,13.79s-6.47-3.08-6.47,3.07,6.47,9.65,6.47,9.65c0,0,6.47-3.5,6.47-9.65s-6.47-3.07-6.47-3.07Z"/></svg>