<?xml version="1.0" encoding="UTF-8"?><svg id="Layer_1" xmlns="http://www.w3.org/2000/svg" width="5.43mm" height="6.78mm" viewBox="0 0 15.4 19.21"><path d="M13.59,3.93c-1.84-.3-3.07-.71-4.39-1.59-.4-.26-.81-.57-1.24-.93-.22-.18-.55-.19-.77,0-.38.31-.74.59-1.1.83-1.39.95-2.65,1.39-4.53,1.7-.3.05-.51.3-.51.6,0,1.63-.01,4.59.17,5.85.29,1.68,1.14,3.19,2.48,4.3.74.62,1.57,1.22,2.39,1.77.4.26.79.51,1.18.74.19.11.43.11.62,0,.43-.25.87-.53,1.32-.83.77-.52,1.55-1.09,2.25-1.67,1.34-1.11,2.19-2.62,2.48-4.3.19-1.26.17-4.22.17-5.85,0-.3-.22-.56-.51-.6ZM12.66,10.16c-.23,1.34-.91,2.55-1.99,3.44-.46.38-.96.76-1.47,1.12-.46.32-.93.62-1.38.89-.15.09-.34.09-.5,0-.4-.24-.82-.51-1.24-.79-.56-.38-1.11-.8-1.61-1.21-1.07-.88-1.75-2.1-1.99-3.44-.15-1.01-.14-3.37-.14-4.68,0-.24.17-.44.41-.48,1.37-.22,2.33-.54,3.33-1.16.38-.24.76-.52,1.17-.86.18-.15.44-.15.62,0,.47.38.89.69,1.32.95.94.57,1.87.86,3.19,1.07.24.04.41.24.41.48,0,1.3.01,3.67-.14,4.68Z"/><path d="M7.57,6.56s-3.24-1.54-3.24,1.53,3.24,4.83,3.24,4.83c0,0,3.24-1.75,3.24-4.83s-3.24-1.53-3.24-1.53Z"/></svg>