<?xml version="1.0" encoding="UTF-8"?><svg id="Layer_1" xmlns="http://www.w3.org/2000/svg" width="390.67mm" height="285.75mm" viewBox="0 0 1107.41 810"><defs><style>.cls-1{fill:#fff;}</style></defs><path class="cls-1" d="M288.96,625.41c0-7.49-6.07-13.56-13.56-13.56h-136.63c-7.49,0-13.56,6.07-13.56,13.56l-10,81.85c0,7.49,6.07,13.56,13.56,13.56h156.63c7.49,0,13.56-6.07,13.56-13.56l-10-81.85ZM251.63,693.78h-89.11c-4.26,0-7.72-3.45-7.72-7.72l5.69-39.45c0-4.26,3.45-7.72,7.72-7.72h77.73c4.26,0,7.72,3.45,7.72,7.72l5.69,39.45c0,4.26-3.45,7.72-7.72,7.72Z"/><path class="cls-1" d="M216.21,220.47c10.4,8.56,17.14,15.88,26.67,22.21l3-68.81h-74.45l3,66.36c8.46-5.77,14.11-12.31,23.26-19.79,5.38-4.4,13.14-4.39,18.51.03Z"/><path class="cls-1" d="M199.55,598.01c-9.14-5.42-16.61-11.37-26.12-17.68l3,37.33h64.45l3-39.59c-10.65,7.15-19.28,13.87-29.51,19.94-4.56,2.7-10.25,2.71-14.81,0Z"/><path class="cls-1" d="M350.95,280.82c-43.98-7.13-73.39-17.1-105.07-38.14v38.11c22.53,13.52,44.71,20.46,76.27,25.58,5.67.92,9.84,5.82,9.82,11.57-.07,31.2.27,87.8-3.32,111.9-5.59,32.14-21.82,61.14-47.54,82.3-11.04,9.18-23.07,18.25-35.24,26.72v39.22c18.49-12.41,37.05-26.13,53.78-40.05,32.15-26.45,52.44-62.69,59.42-102.87,4.48-30.13,4.06-100.87,4.15-139.88.02-7.18-5.19-13.31-12.28-14.46Z"/><path class="cls-1" d="M132.8,512.14c-25.72-21.16-41.95-50.15-47.54-82.3-3.58-24.1-3.25-80.7-3.32-111.9-.01-5.74,4.15-10.64,9.82-11.56,32.85-5.34,55.8-12.86,79.66-27.81v-38.33c-33.16,22.62-63.35,33.25-108.46,40.59-7.09,1.15-12.29,7.28-12.27,14.46.09,39-.33,109.75,4.14,139.88,6.99,40.19,27.27,76.42,59.42,102.87,17.73,14.76,37.56,29.31,57.17,42.31v-39.14c-13.33-9.13-26.58-19.04-38.63-29.06Z"/><path class="cls-1" d="M212.89,560.13c-3.65,2.16-8.2,2.16-11.85,0-9.59-5.68-19.62-12.09-29.61-18.93v39.14c9.52,6.31,18.98,12.26,28.12,17.68,4.56,2.7,10.25,2.7,14.81,0,10.24-6.07,20.86-12.79,31.51-19.94v-39.22c-11.1,7.72-22.31,14.94-33,21.27Z"/><path class="cls-1" d="M199.55,258.07c4.31-3.52,10.52-3.51,14.81.02,11.17,9.19,21.38,16.61,31.52,22.7v-38.11c-9.53-6.33-19.27-13.65-29.67-22.21-5.37-4.42-13.13-4.43-18.51-.03-9.15,7.48-17.8,14.02-26.26,19.79v38.33c9.05-5.67,18.22-12.4,28.12-20.49Z"/><polygon class="cls-1" points="271.2 177.52 142.73 177.52 146.73 149.05 267.2 149.05 271.2 177.52"/><rect class="cls-1" x="187.31" y="56.35" width="39.3" height="97.08"/><ellipse class="cls-1" cx="206.96" cy="56.7" rx="31.53" ry="19.71"/><path class="cls-1" d="M284.39,378.61c0,73.55-77.43,115.48-77.43,115.48,0,0-77.43-41.93-77.43-115.48s77.43-36.72,77.43-36.72c0,0,77.43-36.83,77.43,36.72Z"/><path class="cls-1" d="M414.11,377.56v-68.74c0-5.46-.32-10.05-.95-13.79-.63-3.74-1.71-7.45-3.22-11.14h75.26l-5.83,12.88-5.84,12.96c-2.78-1.36-7.38-2.58-13.79-3.64-4.9-.76-9.68-1.26-14.32-1.52v28.34h35.47l-7.12,12.96-7.2,13.04c-3.03-1.41-7.48-2.65-13.34-3.71-2.68-.5-5.28-.88-7.81-1.14v23.49c0,5.46.31,10.05.95,13.79.63,3.74,1.71,7.45,3.22,11.14h-39.64c1.52-3.69,2.6-7.4,3.26-11.14.61-3.74.91-8.34.91-13.79Z"/><path class="cls-1" d="M496.56,377.56l31.98-77.23c1.46-3.49,2.73-6.82,3.79-10,1.06-3.18,1.64-5.33,1.74-6.44h26.37c.1,1.11.68,3.26,1.74,6.44,1.06,3.18,2.32,6.52,3.79,10l31.98,77.23c2.78,6.47,5.17,11.57,7.16,15.31,2,3.74,4.03,6.95,6.1,9.62h-37.8c.2-1.67.1-3.52-.3-5.57-.41-2.05-1.21-4.76-2.43-8.15l-5.9-16.22h-37.71l-5.32,16.22c-1.16,3.39-1.92,6.1-2.27,8.15-.35,2.05-.43,3.9-.23,5.57h-36.13c2.17-2.83,4.27-6.11,6.29-9.85,2.02-3.74,4.4-8.77,7.12-15.08ZM534.03,351.87h23.52l-12.21-33.65h0l-11.31,33.65Z"/><path class="cls-1" d="M652.46,377.56c0,5.46.32,10.05.95,13.79.63,3.74,1.71,7.45,3.22,11.14h-38.35c1.52-3.69,2.59-7.4,3.22-11.14.63-3.74.95-8.34.95-13.79v-75.18l-15.69-18.49h43.05c1.41,2.98,3.26,6.34,5.53,10.08,2.27,3.74,5.51,8.69,9.7,14.85l29.41,43.43v-43.43c0-5.46-.32-10.05-.95-13.79-.63-3.74-1.71-7.45-3.22-11.14h38.35c-1.52,3.69-2.59,7.4-3.22,11.14-.63,3.74-.95,8.34-.95,13.79v58.05c0,5.15.38,11.17,1.14,18.04.76,6.87,1.67,12.73,2.73,17.58h-35.17c-.46-1.72-1.4-3.99-2.84-6.82-1.44-2.83-2.97-5.46-4.58-7.88l-33.27-49.11v38.88Z"/><path class="cls-1" d="M369.8,536.54l31.98-77.23c1.46-3.49,2.73-6.82,3.79-10,1.06-3.18,1.64-5.33,1.74-6.44h26.37c.1,1.11.68,3.26,1.74,6.44,1.06,3.18,2.32,6.52,3.79,10l31.98,77.23c2.78,6.47,5.17,11.57,7.16,15.31,2,3.74,4.03,6.95,6.1,9.62h-37.8c.2-1.67.1-3.52-.3-5.57-.41-2.05-1.21-4.76-2.43-8.15l-5.9-16.22h-37.71l-5.32,16.22c-1.16,3.39-1.92,6.1-2.27,8.15-.35,2.05-.43,3.9-.23,5.57h-36.13c2.17-2.83,4.27-6.11,6.29-9.85,2.02-3.74,4.4-8.77,7.12-15.08ZM407.27,510.85h23.52l-12.21-33.65h0l-11.31,33.65Z"/><path class="cls-1" d="M513.5,561.47l-24.93-93.67c-1.57-5.76-3.08-10.51-4.55-14.25-1.47-3.74-3.18-7.3-5.15-10.69h39.95c-.5,3.84-.73,7.2-.68,10.08.05,2.88.43,5.91,1.14,9.09l10,47.29h.02l13.32-49.26c.76-2.83,1.46-5.91,2.12-9.25.66-3.33,1.09-5.99,1.29-7.96h22.05c.25,2.48.67,5.38,1.25,8.71.58,3.33,1.2,6.17,1.86,8.49l13.07,51.46h.12l11.64-54.95c.5-2.22.71-4.36.61-6.4-.1-2.05-.51-4.48-1.21-7.31h38.38c-2.02,3.44-3.76,7.02-5.23,10.76-1.47,3.74-2.98,8.46-4.55,14.17l-24.93,93.67h-24.48l-18.82-60.63h.13l-17.92,60.63h-24.48Z"/><path class="cls-1" d="M641.66,536.54l31.98-77.23c1.46-3.49,2.73-6.82,3.79-10,1.06-3.18,1.64-5.33,1.74-6.44h26.37c.1,1.11.68,3.26,1.74,6.44,1.06,3.18,2.32,6.52,3.79,10l31.98,77.23c2.78,6.47,5.17,11.57,7.16,15.31,2,3.74,4.03,6.95,6.1,9.62h-37.8c.2-1.67.1-3.52-.3-5.57-.41-2.05-1.21-4.76-2.43-8.15l-5.9-16.22h-37.71l-5.32,16.22c-1.16,3.39-1.92,6.1-2.27,8.15-.35,2.05-.43,3.9-.23,5.57h-36.13c2.17-2.83,4.27-6.11,6.29-9.85,2.02-3.74,4.4-8.77,7.12-15.08ZM679.12,510.85h23.52l-12.21-33.65h0l-11.31,33.65Z"/><path class="cls-1" d="M766.02,536.54v-68.74c0-5.46-.32-10.05-.95-13.79-.63-3.74-1.71-7.45-3.22-11.14h41.15c14.6,0,25.87,3.06,33.8,9.17,7.93,6.11,11.9,14.8,11.9,26.07s-4.4,19.33-13.19,25.69c-3.08,2.27-6.54,4.09-10.38,5.46l18.95,27.28c3.84,5.51,7.45,10.13,10.84,13.87,3.38,3.74,7.28,7.43,11.67,11.07h-32.46c-2.07,0-5.59-2.8-10.56-8.41s-10.03-12.45-15.17-20.54l-11.08-17.81v21.83c0,5.46.32,10.06.95,13.79.63,3.74,1.71,7.45,3.22,11.14h-39.64c1.52-3.69,2.6-7.4,3.26-11.14.61-3.74.91-8.34.91-13.79ZM797.32,495.92h.99c5.76,0,10.48-1.59,14.17-4.78,3.69-3.18,5.53-7.28,5.53-12.28,0-4.45-1.74-8.08-5.23-10.91-3.49-2.83-7.96-4.24-13.41-4.24h-2.05v32.21Z"/><path class="cls-1" d="M876.22,536.54v-68.74c0-5.46-.32-10.05-.95-13.79-.63-3.74-1.71-7.45-3.22-11.14h35.47c20.36,0,36.74,5.44,49.15,16.33,12.4,10.89,18.61,25.23,18.61,43.01s-5.94,32.62-17.81,43.28c-11.87,10.66-27.97,15.99-48.28,15.99h-37.14c1.52-3.69,2.6-7.4,3.26-11.14.61-3.74.91-8.34.91-13.79ZM907.52,538.28h1.67c9.9,0,17.76-3.22,23.57-9.66,5.81-6.44,8.72-15.14,8.72-26.11,0-12.02-3.04-21.57-9.13-28.65-6.09-7.07-14.36-10.61-24.82-10.61v75.03Z"/><path class="cls-1" d="M342.04,692.89v-68.74c0-5.46-.32-10.05-.95-13.79-.63-3.74-1.71-7.45-3.22-11.14h40.85c14.35,0,25.41,3.18,33.2,9.55,7.78,6.37,11.67,15.44,11.67,27.21s-4.31,20.2-12.92,26.79c-8.62,6.59-20.25,9.89-34.9,9.89h-2.43v20.24c0,5.46.32,10.06.95,13.79.63,3.74,1.71,7.45,3.22,11.14h-39.64c1.52-3.69,2.6-7.4,3.26-11.14.61-3.74.91-8.34.91-13.79ZM373.34,651.81h1.06c5.51,0,10.02-1.57,13.53-4.7,3.51-3.13,5.27-7.17,5.27-12.13,0-4.4-1.64-7.98-4.93-10.76-3.29-2.78-7.5-4.17-12.66-4.17h-2.27v31.75Z"/><path class="cls-1" d="M441.17,692.89v-68.74c0-5.46-.32-10.05-.95-13.79-.63-3.74-1.71-7.45-3.22-11.14h41.15c14.6,0,25.87,3.06,33.8,9.17,7.93,6.11,11.9,14.8,11.9,26.07s-4.4,19.33-13.19,25.69c-3.08,2.27-6.54,4.09-10.38,5.46l18.95,27.28c3.84,5.51,7.45,10.13,10.84,13.87,3.38,3.74,7.28,7.43,11.67,11.07h-32.46c-2.07,0-5.59-2.8-10.56-8.41s-10.03-12.45-15.17-20.54l-11.08-17.81v21.83c0,5.46.32,10.06.95,13.79.63,3.74,1.71,7.45,3.22,11.14h-39.64c1.52-3.69,2.6-7.4,3.26-11.14.61-3.74.91-8.34.91-13.79ZM472.47,652.27h.99c5.76,0,10.48-1.59,14.17-4.77,3.69-3.18,5.53-7.28,5.53-12.28,0-4.45-1.74-8.08-5.23-10.91-3.49-2.83-7.96-4.24-13.41-4.24h-2.05v32.21Z"/><path class="cls-1" d="M560.58,702.82c-11.9-11.42-17.85-26.1-17.85-44.03s5.95-32.7,17.85-44.15c11.9-11.44,27.2-17.17,45.89-17.17s34.05,5.72,45.93,17.17c11.87,11.44,17.81,26.16,17.81,44.15s-5.94,32.62-17.81,44.03c-11.87,11.42-27.18,17.13-45.93,17.13s-33.99-5.71-45.89-17.13ZM632.99,681.52c2.27-6.82,3.41-13.92,3.41-21.3,0-12.68-4.45-22.72-13.34-30.13-8.89-7.4-20.34-10.55-34.33-9.44-3.59,3.33-6.52,8.42-8.79,15.27s-3.41,13.98-3.41,21.41c0,12.63,4.46,22.64,13.38,30.01,8.92,7.38,20.35,10.51,34.29,9.4,3.59-3.33,6.52-8.41,8.79-15.23Z"/><path class="cls-1" d="M701.05,620.13l-9.7.68c-6.42.61-10.99,1.34-13.72,2.2l7.65-23.8h51.31c-1.21,2.88-2.22,6.97-3.03,12.28-.81,5.31-1.21,10.38-1.21,15.23v69.27c-.05,16.67-3.26,28.79-9.62,36.34-6.37,7.55-16.57,11.33-30.62,11.33-7.53,0-14.48-1.39-20.84-4.17l.08-.23c7.68-2.07,13.67-5.31,17.96-9.7,7.78-7.93,11.7-21.37,11.75-40.32v-69.12Z"/><path class="cls-1" d="M755.62,717.82c1.52-3.69,2.59-7.4,3.22-11.14.63-3.74.95-8.34.95-13.79v-68.74c0-5.46-.32-10.05-.95-13.79-.63-3.74-1.71-7.45-3.22-11.14h73.36l-5.84,12.88-5.84,12.96c-2.83-1.36-7.45-2.58-13.87-3.64-4.24-.66-8.36-1.11-12.35-1.36v26.98h35.32l-7.12,12.96-7.2,13.04c-3.03-1.41-7.48-2.65-13.34-3.71-2.58-.5-5.13-.86-7.65-1.06v28.65c7.93-.4,14.75-1.14,20.46-2.2,8.54-1.67,16.62-4.52,24.25-8.56l-6.52,15.84-6.59,15.84h-67.07Z"/><path class="cls-1" d="M946,710.7c-8.03,3.59-14.83,6.03-20.39,7.31-5.56,1.29-12.18,1.93-19.86,1.93-17.43,0-31.69-5.48-42.78-16.45-11.09-10.96-16.64-25.06-16.64-42.29,0-18.69,6.08-33.99,18.23-45.89,12.15-11.9,27.75-17.85,46.8-17.85,5.36,0,10.13.27,14.32.8,4.19.53,10.31,1.63,18.34,3.3v30.85c-6.07-4.29-11.5-7.28-16.3-8.94s-10.33-2.5-16.6-2.5c-9.1,0-16.54,3.4-22.32,10.19-5.79,6.8-8.68,15.53-8.68,26.19,0,12.03,2.79,21.56,8.38,28.61,5.58,7.05,13.13,10.57,22.63,10.57,6.72,0,12.77-1.28,18.16-3.83,5.38-2.55,10.95-6.81,16.72-12.77v30.77Z"/><path class="cls-1" d="M985.41,692.89v-72.76c-6.42.2-11.85.53-16.29.99-7.83.86-14.22,2.33-19.17,4.4l4.24-13.11,4.24-13.19h92.54l-3.49,12.73-3.49,12.73c-3.08-1.26-8.29-2.37-15.61-3.33-3.94-.56-7.83-.91-11.67-1.06v72.6c0,5.05.34,9.45,1.02,13.19.68,3.74,1.88,7.65,3.6,11.75h-40.55c1.72-4.09,2.93-8.01,3.64-11.75.66-3.74.99-8.13.99-13.19Z"/></svg>