<?xml version="1.0" encoding="UTF-8"?><svg id="Layer_1" xmlns="http://www.w3.org/2000/svg" width="118.83mm" height="138.28mm" viewBox="0 0 336.84 391.96"><defs><style>.cls-1{fill:#be1e2d;}</style></defs><path d="M308.89,70.45c-43.98-7.13-73.39-17.1-105.07-38.14-9.53-6.33-19.27-13.65-29.67-22.21-5.37-4.42-13.13-4.43-18.51-.03-9.15,7.48-17.8,14.02-26.26,19.79-33.16,22.62-63.35,33.25-108.46,40.59-7.09,1.15-12.29,7.28-12.27,14.46.09,39-.33,109.75,4.14,139.88,6.99,40.19,27.27,76.42,59.42,102.87,17.73,14.76,37.56,29.31,57.17,42.31,9.52,6.31,18.98,12.26,28.12,17.68,4.56,2.7,10.25,2.7,14.81,0,10.24-6.07,20.86-12.79,31.51-19.94,18.49-12.41,37.05-26.13,53.78-40.05,32.15-26.45,52.44-62.69,59.42-102.87,4.48-30.13,4.06-100.88,4.15-139.88.02-7.18-5.19-13.31-12.28-14.46ZM286.59,219.48c-5.59,32.14-21.82,61.14-47.54,82.3-11.04,9.18-23.07,18.25-35.24,26.72-11.1,7.72-22.31,14.94-33,21.27-3.65,2.16-8.2,2.16-11.85,0-9.59-5.68-19.62-12.09-29.61-18.93-13.33-9.13-26.58-19.04-38.63-29.06-25.72-21.16-41.95-50.15-47.54-82.3-3.58-24.1-3.25-80.7-3.32-111.9-.01-5.74,4.15-10.64,9.82-11.56,32.85-5.34,55.8-12.86,79.66-27.81,9.05-5.67,18.22-12.4,28.12-20.49,4.31-3.52,10.52-3.51,14.81.02,11.17,9.19,21.38,16.61,31.52,22.7,22.53,13.52,44.71,20.46,76.27,25.58,5.67.92,9.84,5.82,9.82,11.57-.07,31.2.27,87.8-3.32,111.9Z"/><path class="cls-1" d="M164.9,133.52s-77.43-36.83-77.43,36.72,77.43,115.48,77.43,115.48c0,0,77.43-41.93,77.43-115.48s-77.43-36.72-77.43-36.72Z"/></svg>