<?xml version="1.0" encoding="UTF-8"?><svg id="Layer_1" xmlns="http://www.w3.org/2000/svg" width="14.72mm" height="18.32mm" viewBox="0 0 41.71 51.94"><path d="M38.67,10.23c-5.51-.89-9.2-2.14-13.17-4.78-1.2-.79-2.42-1.71-3.72-2.78-.67-.55-1.65-.56-2.32,0-1.15.94-2.23,1.76-3.29,2.48-4.16,2.84-7.94,4.17-13.6,5.09-.89.14-1.54.91-1.54,1.81.01,4.89-.04,13.76.52,17.54.88,5.04,3.42,9.58,7.45,12.9,2.22,1.85,4.71,3.67,7.17,5.3,1.19.79,2.38,1.54,3.53,2.22.57.34,1.29.34,1.86,0,1.28-.76,2.62-1.6,3.95-2.5,2.32-1.56,4.64-3.28,6.74-5.02,4.03-3.32,6.57-7.86,7.45-12.9.56-3.78.51-12.65.52-17.54,0-.9-.65-1.67-1.54-1.81ZM35.88,28.91c-.7,4.03-2.74,7.66-5.96,10.32-1.38,1.15-2.89,2.29-4.42,3.35-1.39.97-2.8,1.87-4.14,2.67-.46.27-1.03.27-1.49,0-1.2-.71-2.46-1.52-3.71-2.37-1.67-1.14-3.33-2.39-4.84-3.64-3.22-2.65-5.26-6.29-5.96-10.32-.45-3.02-.41-10.12-.42-14.03,0-.72.52-1.33,1.23-1.45,4.12-.67,7-1.61,9.99-3.49,1.13-.71,2.28-1.55,3.52-2.57.54-.44,1.32-.44,1.86,0,1.4,1.15,2.68,2.08,3.95,2.85,2.82,1.7,5.61,2.57,9.56,3.21.71.12,1.23.73,1.23,1.45,0,3.91.03,11.01-.42,14.03Z"/><path d="M20.62,18.13s-9.71-4.62-9.71,4.6,9.71,14.48,9.71,14.48c0,0,9.71-5.26,9.71-14.48s-9.71-4.6-9.71-4.6Z"/></svg>